<mxfile host="Electron" agent="Mozilla/5.0 (X11; Linux x86_64) AppleWebKit/537.36 (KHTML, like Gecko) draw.io/27.0.9 Chrome/134.0.6998.205 Electron/35.4.0 Safari/537.36" version="27.0.9">
  <diagram name="Страница — 1" id="C3g3TtoIz2z9NgcDx9gs">
    <mxGraphModel dx="3733" dy="2014" grid="1" gridSize="10" guides="1" tooltips="1" connect="1" arrows="1" fold="1" page="1" pageScale="1" pageWidth="827" pageHeight="1169" math="0" shadow="0">
      <root>
        <mxCell id="0" />
        <mxCell id="1" parent="0" />
        <mxCell id="ggSJOadMa6ppAcc97rQS-37" style="edgeStyle=orthogonalEdgeStyle;shape=connector;curved=1;rounded=0;orthogonalLoop=1;jettySize=auto;html=1;entryX=0.216;entryY=1;entryDx=0;entryDy=0;entryPerimeter=0;dashed=1;strokeColor=default;strokeWidth=3;align=center;verticalAlign=middle;fontFamily=Helvetica;fontSize=11;fontColor=default;labelBackgroundColor=default;endArrow=classic;endSize=20;exitX=0.998;exitY=0.297;exitDx=0;exitDy=0;exitPerimeter=0;" parent="1" source="ggSJOadMa6ppAcc97rQS-3" target="ggSJOadMa6ppAcc97rQS-4" edge="1">
          <mxGeometry relative="1" as="geometry" />
        </mxCell>
        <mxCell id="ggSJOadMa6ppAcc97rQS-2" value="&lt;font style=&quot;font-size: 36px;&quot;&gt;Расчёт бонусов менеджеров&lt;/font&gt;" style="rounded=1;whiteSpace=wrap;html=1;fontFamily=Helvetica;fontSize=11;fontColor=default;labelBackgroundColor=default;verticalAlign=top;align=center;fontStyle=1;strokeWidth=3;" parent="1" vertex="1">
          <mxGeometry x="680" y="220" width="850" height="1330" as="geometry" />
        </mxCell>
        <mxCell id="ggSJOadMa6ppAcc97rQS-13" style="edgeStyle=orthogonalEdgeStyle;shape=connector;curved=1;rounded=0;orthogonalLoop=1;jettySize=auto;html=1;dashed=1;strokeColor=default;strokeWidth=3;align=center;verticalAlign=middle;fontFamily=Helvetica;fontSize=11;fontColor=default;labelBackgroundColor=default;endArrow=classic;entryX=0;entryY=0.25;entryDx=0;entryDy=0;exitX=0.25;exitY=0;exitDx=0;exitDy=0;endSize=20;" parent="1" source="ggSJOadMa6ppAcc97rQS-3" target="ggSJOadMa6ppAcc97rQS-4" edge="1">
          <mxGeometry relative="1" as="geometry">
            <mxPoint x="-820" y="-510" as="targetPoint" />
          </mxGeometry>
        </mxCell>
        <mxCell id="ggSJOadMa6ppAcc97rQS-51" style="edgeStyle=orthogonalEdgeStyle;shape=connector;curved=1;rounded=0;orthogonalLoop=1;jettySize=auto;html=1;entryX=0.5;entryY=1;entryDx=0;entryDy=0;dashed=1;strokeColor=default;strokeWidth=3;align=center;verticalAlign=middle;fontFamily=Helvetica;fontSize=11;fontColor=default;labelBackgroundColor=default;endArrow=classic;endSize=20;exitX=0.5;exitY=1;exitDx=0;exitDy=0;" parent="1" source="ggSJOadMa6ppAcc97rQS-3" target="ggSJOadMa6ppAcc97rQS-2" edge="1">
          <mxGeometry relative="1" as="geometry">
            <Array as="points">
              <mxPoint x="-985" y="2020" />
              <mxPoint x="1105" y="2020" />
            </Array>
          </mxGeometry>
        </mxCell>
        <mxCell id="ggSJOadMa6ppAcc97rQS-3" value="&lt;font style=&quot;font-size: 36px;&quot;&gt;Создание заданий для будущих &lt;br&gt;учителей и управление ими&lt;/font&gt;" style="rounded=1;whiteSpace=wrap;html=1;fontFamily=Helvetica;fontSize=11;fontColor=default;labelBackgroundColor=default;verticalAlign=top;align=center;fontStyle=1;strokeWidth=3;" parent="1" vertex="1">
          <mxGeometry x="-1440" y="640" width="910" height="910" as="geometry" />
        </mxCell>
        <mxCell id="ggSJOadMa6ppAcc97rQS-33" style="edgeStyle=orthogonalEdgeStyle;shape=connector;curved=1;rounded=0;orthogonalLoop=1;jettySize=auto;html=1;dashed=1;strokeColor=default;strokeWidth=3;align=center;verticalAlign=middle;fontFamily=Helvetica;fontSize=11;fontColor=default;labelBackgroundColor=default;endArrow=classic;endSize=20;" parent="1" source="ggSJOadMa6ppAcc97rQS-4" target="ggSJOadMa6ppAcc97rQS-2" edge="1">
          <mxGeometry relative="1" as="geometry" />
        </mxCell>
        <mxCell id="ggSJOadMa6ppAcc97rQS-56" style="edgeStyle=orthogonalEdgeStyle;shape=connector;curved=1;rounded=0;orthogonalLoop=1;jettySize=auto;html=1;dashed=1;strokeColor=default;strokeWidth=3;align=center;verticalAlign=middle;fontFamily=Helvetica;fontSize=11;fontColor=default;labelBackgroundColor=default;endArrow=classic;endSize=20;entryX=1;entryY=0.5;entryDx=0;entryDy=0;" parent="1" source="ggSJOadMa6ppAcc97rQS-4" target="ggSJOadMa6ppAcc97rQS-3" edge="1">
          <mxGeometry relative="1" as="geometry">
            <mxPoint x="55" y="990" as="targetPoint" />
            <Array as="points">
              <mxPoint x="110" y="1095" />
            </Array>
          </mxGeometry>
        </mxCell>
        <mxCell id="EVIkO0A5kTosM3JdIASA-3" style="edgeStyle=orthogonalEdgeStyle;shape=connector;curved=1;rounded=0;orthogonalLoop=1;jettySize=auto;html=1;dashed=1;strokeColor=default;strokeWidth=3;align=center;verticalAlign=middle;fontFamily=Helvetica;fontSize=11;fontColor=default;labelBackgroundColor=default;endArrow=classic;endSize=20;entryX=0;entryY=0.25;entryDx=0;entryDy=0;exitX=0.689;exitY=0.997;exitDx=0;exitDy=0;exitPerimeter=0;" edge="1" parent="1" source="ggSJOadMa6ppAcc97rQS-4" target="ggSJOadMa6ppAcc97rQS-2">
          <mxGeometry relative="1" as="geometry">
            <mxPoint x="480" y="1250" as="targetPoint" />
            <Array as="points">
              <mxPoint x="238" y="440" />
              <mxPoint x="260" y="440" />
              <mxPoint x="260" y="553" />
            </Array>
          </mxGeometry>
        </mxCell>
        <mxCell id="ggSJOadMa6ppAcc97rQS-4" value="&lt;font style=&quot;font-size: 36px;&quot;&gt;Найм учителей&lt;/font&gt;" style="rounded=1;whiteSpace=wrap;html=1;fontFamily=Helvetica;fontSize=11;fontColor=default;labelBackgroundColor=default;verticalAlign=top;align=center;fontStyle=1;strokeWidth=3;" parent="1" vertex="1">
          <mxGeometry x="-430" y="-880" width="970" height="920" as="geometry" />
        </mxCell>
        <mxCell id="ggSJOadMa6ppAcc97rQS-14" value="[COMM-10]" style="rounded=0;whiteSpace=wrap;html=1;fontFamily=Helvetica;fontSize=40;labelBackgroundColor=none;fillColor=#fff2cc;strokeColor=#d6b656;strokeWidth=3;" parent="1" vertex="1">
          <mxGeometry x="-1220" y="-540" width="351" height="130" as="geometry" />
        </mxCell>
        <mxCell id="ggSJOadMa6ppAcc97rQS-18" value="Отправка информации о менеджере" style="rounded=0;whiteSpace=wrap;html=1;fontFamily=Helvetica;fontSize=28;labelBackgroundColor=none;fillColor=#f5f5f5;strokeColor=#666666;fontColor=#333333;strokeWidth=3;" parent="1" vertex="1">
          <mxGeometry x="-1220" y="-410" width="351" height="130" as="geometry" />
        </mxCell>
        <mxCell id="ggSJOadMa6ppAcc97rQS-19" value="Асинхронное CUD-событие ManagerCreated" style="rounded=0;whiteSpace=wrap;html=1;fontFamily=Helvetica;fontSize=28;labelBackgroundColor=none;fillColor=#f5f5f5;strokeColor=#666666;fontColor=#333333;strokeWidth=3;" parent="1" vertex="1">
          <mxGeometry x="-1220" y="-280" width="351" height="130" as="geometry" />
        </mxCell>
        <mxCell id="ggSJOadMa6ppAcc97rQS-25" value="Отправка информации о назначении" style="rounded=0;whiteSpace=wrap;html=1;fontFamily=Helvetica;fontSize=28;labelBackgroundColor=none;fillColor=#f5f5f5;strokeColor=#666666;fontColor=#333333;strokeWidth=3;" parent="1" vertex="1">
          <mxGeometry x="-420" y="270" width="351" height="130" as="geometry" />
        </mxCell>
        <mxCell id="ggSJOadMa6ppAcc97rQS-26" value="Асинхронное событие TaskAssigned" style="rounded=0;whiteSpace=wrap;html=1;fontFamily=Helvetica;fontSize=28;labelBackgroundColor=none;fillColor=#f5f5f5;strokeColor=#666666;fontColor=#333333;strokeWidth=3;" parent="1" vertex="1">
          <mxGeometry x="-420" y="400" width="351" height="130" as="geometry" />
        </mxCell>
        <mxCell id="ggSJOadMa6ppAcc97rQS-27" value="[COMM-020]" style="rounded=0;whiteSpace=wrap;html=1;fontFamily=Helvetica;fontSize=40;labelBackgroundColor=none;fillColor=#fff2cc;strokeColor=#d6b656;strokeWidth=3;" parent="1" vertex="1">
          <mxGeometry x="-420" y="140" width="351" height="130" as="geometry" />
        </mxCell>
        <mxCell id="ggSJOadMa6ppAcc97rQS-29" style="edgeStyle=orthogonalEdgeStyle;shape=connector;curved=1;rounded=0;orthogonalLoop=1;jettySize=auto;html=1;entryX=0.809;entryY=0.001;entryDx=0;entryDy=0;entryPerimeter=0;dashed=1;strokeColor=default;strokeWidth=3;align=center;verticalAlign=middle;fontFamily=Helvetica;fontSize=11;fontColor=default;labelBackgroundColor=default;endArrow=classic;endSize=20;" parent="1" source="ggSJOadMa6ppAcc97rQS-4" target="ggSJOadMa6ppAcc97rQS-3" edge="1">
          <mxGeometry relative="1" as="geometry" />
        </mxCell>
        <mxCell id="ggSJOadMa6ppAcc97rQS-30" value="Отправка информации о выполнении задания" style="rounded=0;whiteSpace=wrap;html=1;fontFamily=Helvetica;fontSize=28;labelBackgroundColor=none;fillColor=#f5f5f5;strokeColor=#666666;fontColor=#333333;strokeWidth=3;" parent="1" vertex="1">
          <mxGeometry x="-860" y="230" width="351" height="130" as="geometry" />
        </mxCell>
        <mxCell id="ggSJOadMa6ppAcc97rQS-31" value="Асинхронное событие TaskSolved" style="rounded=0;whiteSpace=wrap;html=1;fontFamily=Helvetica;fontSize=28;labelBackgroundColor=none;fillColor=#f5f5f5;strokeColor=#666666;fontColor=#333333;strokeWidth=3;" parent="1" vertex="1">
          <mxGeometry x="-860" y="360" width="351" height="130" as="geometry" />
        </mxCell>
        <mxCell id="ggSJOadMa6ppAcc97rQS-32" value="[COMM-030]" style="rounded=0;whiteSpace=wrap;html=1;fontFamily=Helvetica;fontSize=40;labelBackgroundColor=none;fillColor=#fff2cc;strokeColor=#d6b656;strokeWidth=3;" parent="1" vertex="1">
          <mxGeometry x="-860" y="100" width="351" height="130" as="geometry" />
        </mxCell>
        <mxCell id="ggSJOadMa6ppAcc97rQS-34" value="Отправка информации о выполнении задания" style="rounded=0;whiteSpace=wrap;html=1;fontFamily=Helvetica;fontSize=28;labelBackgroundColor=none;fillColor=#f5f5f5;strokeColor=#666666;fontColor=#333333;strokeWidth=3;" parent="1" vertex="1">
          <mxGeometry x="650" y="-420" width="351" height="130" as="geometry" />
        </mxCell>
        <mxCell id="ggSJOadMa6ppAcc97rQS-35" value="Асинхронное событие TaskSolved" style="rounded=0;whiteSpace=wrap;html=1;fontFamily=Helvetica;fontSize=28;labelBackgroundColor=none;fillColor=#f5f5f5;strokeColor=#666666;fontColor=#333333;strokeWidth=3;" parent="1" vertex="1">
          <mxGeometry x="650" y="-290" width="351" height="130" as="geometry" />
        </mxCell>
        <mxCell id="ggSJOadMa6ppAcc97rQS-36" value="[COMM-040]" style="rounded=0;whiteSpace=wrap;html=1;fontFamily=Helvetica;fontSize=40;labelBackgroundColor=none;fillColor=#fff2cc;strokeColor=#d6b656;strokeWidth=3;" parent="1" vertex="1">
          <mxGeometry x="650" y="-550" width="351" height="130" as="geometry" />
        </mxCell>
        <mxCell id="ggSJOadMa6ppAcc97rQS-38" style="edgeStyle=orthogonalEdgeStyle;shape=connector;curved=1;rounded=0;orthogonalLoop=1;jettySize=auto;html=1;dashed=1;strokeColor=default;strokeWidth=3;align=center;verticalAlign=middle;fontFamily=Helvetica;fontSize=11;fontColor=default;labelBackgroundColor=default;endArrow=classic;entryX=0.8;entryY=-0.004;entryDx=0;entryDy=0;entryPerimeter=0;endSize=20;" parent="1" source="ggSJOadMa6ppAcc97rQS-4" target="ggSJOadMa6ppAcc97rQS-2" edge="1">
          <mxGeometry relative="1" as="geometry">
            <mxPoint x="880" y="-830" as="sourcePoint" />
            <mxPoint x="1445" y="-190" as="targetPoint" />
            <Array as="points">
              <mxPoint x="1360" y="-760" />
            </Array>
          </mxGeometry>
        </mxCell>
        <mxCell id="ggSJOadMa6ppAcc97rQS-39" value="Отправка информации о провале задания" style="rounded=0;whiteSpace=wrap;html=1;fontFamily=Helvetica;fontSize=28;labelBackgroundColor=none;fillColor=#f5f5f5;strokeColor=#666666;fontColor=#333333;strokeWidth=3;" parent="1" vertex="1">
          <mxGeometry x="1120" y="-490" width="351" height="130" as="geometry" />
        </mxCell>
        <mxCell id="ggSJOadMa6ppAcc97rQS-40" value="Асинхронное событие TaskFailed" style="rounded=0;whiteSpace=wrap;html=1;fontFamily=Helvetica;fontSize=28;labelBackgroundColor=none;fillColor=#f5f5f5;strokeColor=#666666;fontColor=#333333;strokeWidth=3;" parent="1" vertex="1">
          <mxGeometry x="1120" y="-360" width="351" height="130" as="geometry" />
        </mxCell>
        <mxCell id="ggSJOadMa6ppAcc97rQS-41" value="[COMM-050]" style="rounded=0;whiteSpace=wrap;html=1;fontFamily=Helvetica;fontSize=40;labelBackgroundColor=none;fillColor=#fff2cc;strokeColor=#d6b656;strokeWidth=3;" parent="1" vertex="1">
          <mxGeometry x="1120" y="-620" width="351" height="130" as="geometry" />
        </mxCell>
        <mxCell id="ggSJOadMa6ppAcc97rQS-47" value="[COMM-060]" style="rounded=0;whiteSpace=wrap;html=1;fontFamily=Helvetica;fontSize=40;labelBackgroundColor=none;fillColor=#fff2cc;strokeColor=#d6b656;strokeWidth=3;" parent="1" vertex="1">
          <mxGeometry x="189" y="240" width="351" height="130" as="geometry" />
        </mxCell>
        <mxCell id="ggSJOadMa6ppAcc97rQS-49" style="edgeStyle=orthogonalEdgeStyle;shape=connector;curved=1;rounded=0;orthogonalLoop=1;jettySize=auto;html=1;dashed=1;strokeColor=default;strokeWidth=3;align=center;verticalAlign=middle;fontFamily=Helvetica;fontSize=11;fontColor=default;labelBackgroundColor=default;endArrow=classic;endSize=20;exitX=0.998;exitY=0.885;exitDx=0;exitDy=0;exitPerimeter=0;" parent="1" source="ggSJOadMa6ppAcc97rQS-3" target="ggSJOadMa6ppAcc97rQS-2" edge="1">
          <mxGeometry relative="1" as="geometry">
            <Array as="points">
              <mxPoint x="-532" y="1420" />
              <mxPoint x="130" y="1420" />
              <mxPoint x="130" y="1370" />
            </Array>
            <mxPoint x="450" y="1210" as="targetPoint" />
          </mxGeometry>
        </mxCell>
        <mxCell id="ggSJOadMa6ppAcc97rQS-20" value="[COMM-070]" style="rounded=0;whiteSpace=wrap;html=1;fontFamily=Helvetica;fontSize=40;labelBackgroundColor=none;fillColor=#fff2cc;strokeColor=#d6b656;strokeWidth=3;" parent="1" vertex="1">
          <mxGeometry x="-113" y="1340" width="351" height="130" as="geometry" />
        </mxCell>
        <mxCell id="ggSJOadMa6ppAcc97rQS-21" value="Отправка информации о менеджере" style="rounded=0;whiteSpace=wrap;html=1;fontFamily=Helvetica;fontSize=28;labelBackgroundColor=none;fillColor=#f5f5f5;strokeColor=#666666;fontColor=#333333;strokeWidth=3;" parent="1" vertex="1">
          <mxGeometry x="-113" y="1470" width="351" height="130" as="geometry" />
        </mxCell>
        <mxCell id="ggSJOadMa6ppAcc97rQS-22" value="Асинхронное CUD-событие ManagerCreated" style="rounded=0;whiteSpace=wrap;html=1;fontFamily=Helvetica;fontSize=28;labelBackgroundColor=none;fillColor=#f5f5f5;strokeColor=#666666;fontColor=#333333;strokeWidth=3;" parent="1" vertex="1">
          <mxGeometry x="-113" y="1600" width="351" height="130" as="geometry" />
        </mxCell>
        <mxCell id="ggSJOadMa6ppAcc97rQS-53" value="[COMM-080]" style="rounded=0;whiteSpace=wrap;html=1;fontFamily=Helvetica;fontSize=40;labelBackgroundColor=none;fillColor=#fff2cc;strokeColor=#d6b656;strokeWidth=3;" parent="1" vertex="1">
          <mxGeometry x="-200" y="1910" width="351" height="130" as="geometry" />
        </mxCell>
        <mxCell id="ggSJOadMa6ppAcc97rQS-54" value="Отправка информации о задаче" style="rounded=0;whiteSpace=wrap;html=1;fontFamily=Helvetica;fontSize=28;labelBackgroundColor=none;fillColor=#f5f5f5;strokeColor=#666666;fontColor=#333333;strokeWidth=3;" parent="1" vertex="1">
          <mxGeometry x="-200" y="2040" width="351" height="130" as="geometry" />
        </mxCell>
        <mxCell id="ggSJOadMa6ppAcc97rQS-55" value="Асинхронное CUD событие TaskCreated" style="rounded=0;whiteSpace=wrap;html=1;fontFamily=Helvetica;fontSize=28;labelBackgroundColor=none;fillColor=#f5f5f5;strokeColor=#666666;fontColor=#333333;strokeWidth=3;" parent="1" vertex="1">
          <mxGeometry x="-200" y="2170" width="351" height="130" as="geometry" />
        </mxCell>
        <mxCell id="ggSJOadMa6ppAcc97rQS-57" value="[COMM-090]" style="rounded=0;whiteSpace=wrap;html=1;fontFamily=Helvetica;fontSize=40;labelBackgroundColor=none;fillColor=#fff2cc;strokeColor=#d6b656;strokeWidth=3;" parent="1" vertex="1">
          <mxGeometry x="-180" y="730" width="351" height="130" as="geometry" />
        </mxCell>
        <mxCell id="ggSJOadMa6ppAcc97rQS-58" value="Отправка информации о кандидате" style="rounded=0;whiteSpace=wrap;html=1;fontFamily=Helvetica;fontSize=28;labelBackgroundColor=none;fillColor=#f5f5f5;strokeColor=#666666;fontColor=#333333;strokeWidth=3;" parent="1" vertex="1">
          <mxGeometry x="-180" y="860" width="351" height="130" as="geometry" />
        </mxCell>
        <mxCell id="ggSJOadMa6ppAcc97rQS-59" value="Асинхронное CUD событие CandidateUpdated" style="rounded=0;whiteSpace=wrap;html=1;fontFamily=Helvetica;fontSize=28;labelBackgroundColor=none;fillColor=#f5f5f5;strokeColor=#666666;fontColor=#333333;strokeWidth=3;" parent="1" vertex="1">
          <mxGeometry x="-180" y="990" width="351" height="130" as="geometry" />
        </mxCell>
        <mxCell id="ggSJOadMa6ppAcc97rQS-60" style="edgeStyle=orthogonalEdgeStyle;shape=connector;curved=1;rounded=0;orthogonalLoop=1;jettySize=auto;html=1;dashed=1;strokeColor=default;strokeWidth=3;align=center;verticalAlign=middle;fontFamily=Helvetica;fontSize=11;fontColor=default;labelBackgroundColor=default;endArrow=classic;endSize=20;entryX=0;entryY=0.5;entryDx=0;entryDy=0;exitX=-0.006;exitY=0.133;exitDx=0;exitDy=0;exitPerimeter=0;" parent="1" source="ggSJOadMa6ppAcc97rQS-4" target="ggSJOadMa6ppAcc97rQS-3" edge="1">
          <mxGeometry relative="1" as="geometry">
            <mxPoint x="-2060" y="455" as="targetPoint" />
            <mxPoint x="-1420" y="-600" as="sourcePoint" />
            <Array as="points">
              <mxPoint x="-1910" y="-758" />
              <mxPoint x="-1910" y="1095" />
            </Array>
          </mxGeometry>
        </mxCell>
        <mxCell id="ggSJOadMa6ppAcc97rQS-61" value="[COMM-091]" style="rounded=0;whiteSpace=wrap;html=1;fontFamily=Helvetica;fontSize=40;labelBackgroundColor=none;fillColor=#fff2cc;strokeColor=#d6b656;strokeWidth=3;" parent="1" vertex="1">
          <mxGeometry x="-2060" y="50" width="351" height="130" as="geometry" />
        </mxCell>
        <mxCell id="ggSJOadMa6ppAcc97rQS-62" value="Отправка информации о кандидате" style="rounded=0;whiteSpace=wrap;html=1;fontFamily=Helvetica;fontSize=28;labelBackgroundColor=none;fillColor=#f5f5f5;strokeColor=#666666;fontColor=#333333;strokeWidth=3;" parent="1" vertex="1">
          <mxGeometry x="-2060" y="180" width="351" height="130" as="geometry" />
        </mxCell>
        <mxCell id="ggSJOadMa6ppAcc97rQS-63" value="Асинхронное CUD-событие CandidateCreated" style="rounded=0;whiteSpace=wrap;html=1;fontFamily=Helvetica;fontSize=28;labelBackgroundColor=none;fillColor=#f5f5f5;strokeColor=#666666;fontColor=#333333;strokeWidth=3;" parent="1" vertex="1">
          <mxGeometry x="-2060" y="310" width="351" height="130" as="geometry" />
        </mxCell>
        <mxCell id="EVIkO0A5kTosM3JdIASA-4" value="Отправка информации о рассчитанном рейтинге" style="rounded=0;whiteSpace=wrap;html=1;fontFamily=Helvetica;fontSize=28;labelBackgroundColor=none;fillColor=#f5f5f5;strokeColor=#666666;fontColor=#333333;strokeWidth=3;" vertex="1" parent="1">
          <mxGeometry x="189" y="370" width="351" height="130" as="geometry" />
        </mxCell>
        <mxCell id="EVIkO0A5kTosM3JdIASA-5" value="Асинхронное событие RatingCalculated" style="rounded=0;whiteSpace=wrap;html=1;fontFamily=Helvetica;fontSize=28;labelBackgroundColor=none;fillColor=#f5f5f5;strokeColor=#666666;fontColor=#333333;strokeWidth=3;" vertex="1" parent="1">
          <mxGeometry x="189" y="500" width="351" height="130" as="geometry" />
        </mxCell>
      </root>
    </mxGraphModel>
  </diagram>
</mxfile>
